<svg width="1284" height="386" viewBox="0 0 1284 386" fill="none" xmlns="http://www.w3.org/2000/svg">
<path d="M504.953 184.094C511.064 188.032 511.064 196.968 504.953 200.906L274.666 349.277C268.011 353.565 259.25 348.787 259.25 340.871V44.1288C259.25 36.2126 268.011 31.435 274.666 35.7225L504.953 184.094Z" fill="#3A0E6C"/>
<path d="M422.953 185.094C429.064 189.032 429.064 197.968 422.953 201.906L192.666 350.277C186.011 354.565 177.25 349.787 177.25 341.871V45.1288C177.25 37.2126 186.011 32.435 192.666 36.7225L422.953 185.094Z" fill="#50199A"/>
<path d="M331.953 185.094C338.064 189.032 338.064 197.968 331.953 201.906L101.666 350.277C95.0115 354.565 86.25 349.787 86.25 341.871V45.1288C86.25 37.2126 95.0115 32.435 101.666 36.7225L331.953 185.094Z" fill="#975EE6"/>
<path d="M647.5 287L642.25 259.25H602.75L597.5 287H563.5L597.25 112H649L681 287H647.5ZM622 144.5L612.25 202.75L606.75 232.5H638L632.25 202.75L622.5 144.5H622ZM741.617 258H785.617V287H722.117C711.117 276.667 702.784 263.583 697.117 247.75C691.451 231.917 688.617 215.667 688.617 199C688.617 182.167 691.784 166 698.117 150.5C704.451 135 713.867 122.167 726.367 112H785.617V142H741.617C737.117 147.167 733.201 155.5 729.867 167C726.701 178.5 725.117 189.5 725.117 200C725.117 210.5 726.701 221.5 729.867 233C733.201 244.5 737.117 252.833 741.617 258ZM832.207 142H794.457V112H903.957V142H866.207V287H832.207V142ZM918.459 287V112H952.709V287H918.459ZM1084.06 112L1048.56 287H1001.56L966.059 112H1002.06L1015.81 193L1024.31 245.5H1025.81L1034.31 193L1048.06 112H1084.06ZM1161.9 287L1156.65 259.25H1117.15L1111.9 287H1077.9L1111.65 112H1163.4L1195.4 287H1161.9ZM1136.4 144.5L1126.65 202.75L1121.15 232.5H1152.4L1146.65 202.75L1136.9 144.5H1136.4ZM1199.21 214.5V190.25H1282.71V214.5H1199.21ZM1228.71 245.25V159.25H1252.71V245.25H1228.71Z" fill="#240A48"/>
</svg>
